<svg xmlns="http://www.w3.org/2000/svg" width="21.388" height="20.753" viewBox="0 0 21.388 20.753">
  <path id="person_FILL1_wght400_GRAD0_opsz48_2_" data-name="person_FILL1_wght400_GRAD0_opsz48 (2)" d="M18.694,18.976a4.808,4.808,0,0,1-5.013-5.013A4.808,4.808,0,0,1,18.694,8.95a4.808,4.808,0,0,1,5.013,5.013,4.808,4.808,0,0,1-5.013,5.013ZM10.005,29.7A2,2,0,0,1,8,27.7V26.562a3.678,3.678,0,0,1,.635-2.172,4.077,4.077,0,0,1,1.638-1.37,25.119,25.119,0,0,1,4.294-1.5,17.36,17.36,0,0,1,4.127-.5,16.629,16.629,0,0,1,4.111.518,28.468,28.468,0,0,1,4.278,1.487,4.029,4.029,0,0,1,1.671,1.37,3.678,3.678,0,0,1,.635,2.172V27.7A2,2,0,0,1,27.383,29.7Z" transform="translate(-8 -8.95)" fill="#323338"/>
</svg>