<svg xmlns="http://www.w3.org/2000/svg" width="28.535" height="20.753" viewBox="0 0 28.535 20.753">
  <path id="Path_7597" data-name="Path 7597" d="M25,9.188H21.753V6.594A2.6,2.6,0,0,0,19.159,4H3.594A2.6,2.6,0,0,0,1,6.594V18.268a2.6,2.6,0,0,0,2.594,2.594,3.891,3.891,0,1,0,7.782,0h7.782a3.891,3.891,0,1,0,7.782,0h1.3a1.3,1.3,0,0,0,1.3-1.3V15.246a2.61,2.61,0,0,0-.519-1.556L26.033,9.707A1.315,1.315,0,0,0,25,9.188ZM7.485,22.159a1.3,1.3,0,1,1,1.3-1.3A1.3,1.3,0,0,1,7.485,22.159ZM25,11.134l2.542,3.243H21.753V11.134ZM23.05,22.159a1.3,1.3,0,1,1,1.3-1.3A1.3,1.3,0,0,1,23.05,22.159Z" transform="translate(-1 -4)" fill="#323338"/>
</svg>