<svg xmlns="http://www.w3.org/2000/svg" xmlns:xlink="http://www.w3.org/1999/xlink" width="31.103" height="18.754" viewBox="0 0 31.103 18.754">
  <defs>
    <clipPath id="clip-path">
      <path id="Path_9037" data-name="Path 9037" d="M56.51,8.958a4.109,4.109,0,0,0-1.053-.14,4.172,4.172,0,0,0-4.152,3.766A4.173,4.173,0,1,0,49.263,20.4a3.934,3.934,0,0,0,.618-.051A4.171,4.171,0,0,0,55.434,22.7a7.161,7.161,0,0,0,4.956,1.775c2.742,0,5.057-1.256,5.8-2.978a4.167,4.167,0,0,0,6.359-1.763c2.125-.59,3.64-2.121,3.64-3.915,0-2.305-2.5-4.174-5.581-4.174a7.507,7.507,0,0,0-1.082.079,4.639,4.639,0,0,0-4.217-2.5,5.2,5.2,0,0,0-.617.041,4.17,4.17,0,0,0-8.186-.3" fill="none"/>
    </clipPath>
    <linearGradient id="linear-gradient" x1="-1.193" y1="1" x2="-1.165" y2="1" gradientUnits="objectBoundingBox">
      <stop offset="0" stop-color="#437aff"/>
      <stop offset="1" stop-color="#67a4fe"/>
    </linearGradient>
  </defs>
  <g id="Group_6208" data-name="Group 6208" transform="translate(-45.09 -5.721)" clip-path="url(#clip-path)">
    <rect id="Rectangle_2389" data-name="Rectangle 2389" width="35.827" height="34.468" transform="translate(35.826 13.644) rotate(-40.539)" fill="url(#linear-gradient)"/>
  </g>
</svg>