<svg xmlns="http://www.w3.org/2000/svg" width="32.204" height="18.008" viewBox="0 0 32.204 18.008">
  <path id="Union_38" data-name="Union 38" d="M11.128,15.835a5.075,5.075,0,0,0,1.688-1.162,3.035,3.035,0,0,0,.81-2.372,3.066,3.066,0,0,0-3.091-2.677,2.959,2.959,0,0,0-.664.076,3.709,3.709,0,0,0-6.9-.1c-.113-.01-.224-.014-.335-.014a3.414,3.414,0,0,0-1.409.3c-.011-.118-.018-.237-.018-.358a3.786,3.786,0,0,1,5.636-3.3A3.768,3.768,0,0,1,11.57,2.935a3.779,3.779,0,0,1,7.179-.591,3.481,3.481,0,0,0-.489.468A2.943,2.943,0,0,0,17.6,5.246c.43,2.425,3.875,3.51,7.1,3.511h0a11.629,11.629,0,0,0,4.456-.8,2.913,2.913,0,0,1,.262,1.2c0,1.628-1.372,3.015-3.3,3.552a3.776,3.776,0,0,1-5.766,1.6c-.678,1.561-2.778,2.7-5.264,2.7A6.846,6.846,0,0,1,11.128,15.835ZM.037,13.082a2.516,2.516,0,0,1,2.6-2.858,3.088,3.088,0,0,1,.774.1,3.065,3.065,0,0,1,6.017.224,2.447,2.447,0,0,1,3.554,1.812c.235,2.486-3.123,3.7-6.482,3.7C3.445,16.063.386,15.056.037,13.082Zm18.2-7.949a2.517,2.517,0,0,1,2.6-2.858,3.052,3.052,0,0,1,.774.1,3.065,3.065,0,0,1,6.017.225,2.447,2.447,0,0,1,3.555,1.808c.235,2.487-3.123,3.7-6.483,3.7C21.645,8.114,18.585,7.107,18.236,5.134Z" transform="translate(0.505 0.5)" fill="#67a4fe" stroke="rgba(0,0,0,0)" stroke-miterlimit="10" stroke-width="1"/>
</svg>