<svg xmlns="http://www.w3.org/2000/svg" width="64.581" height="24.461" viewBox="0 0 64.581 24.461">
  <g id="Group_6635" data-name="Group 6635" transform="translate(12894 12280)">
    <path id="Path_9163" data-name="Path 9163" d="M53.56,10.77a4.012,4.012,0,0,0-1.221.212,6.8,6.8,0,0,0-6.261-4.876,5.975,5.975,0,0,0-1.395.167A10.262,10.262,0,0,0,35.535,0C30.791,0,26.8,3.635,25.581,8.587c-.132-.011-.259-.045-.393-.045a5.4,5.4,0,0,0-5.029,4.317,3.117,3.117,0,0,0-1.3-.292,3.756,3.756,0,0,0-3.493,3.973,4.441,4.441,0,0,0,.057.638H58a5.8,5.8,0,0,0,.136-1.2c0-2.873-2.047-5.2-4.573-5.2" transform="translate(-12900.098 -12280)" fill="#c1cae3"/>
    <path id="Path_9167" data-name="Path 9167" d="M29.094,10.288a5.643,5.643,0,0,1-2.149-.28c-.368-.131-.73-.279-1.11-.381a5.635,5.635,0,0,0-1.38-.155,5.238,5.238,0,0,0-2.3.5,6.832,6.832,0,0,1-2.519.685,5.651,5.651,0,0,1-2.6-.434,8.168,8.168,0,0,0-1.168-.452A7.364,7.364,0,0,0,14.535,9.6a6.893,6.893,0,0,0-1.314.133,10.823,10.823,0,0,0-1.327.478,5.323,5.323,0,0,1-2.367.32,6.568,6.568,0,0,1-2.424-.7,6.67,6.67,0,0,0-2.244-.618,5.618,5.618,0,0,1,2.149.28c.368.131.73.279,1.11.381a5.667,5.667,0,0,0,1.38.155,5.239,5.239,0,0,0,2.3-.5,9.875,9.875,0,0,1,1.137-.468,5.79,5.79,0,0,1,1.382-.216,5.648,5.648,0,0,1,2.6.435,8.239,8.239,0,0,0,1.168.452,7.416,7.416,0,0,0,1.337.172,6.792,6.792,0,0,0,1.314-.133,10.9,10.9,0,0,0,1.327-.478,5.342,5.342,0,0,1,2.368-.318,6.553,6.553,0,0,1,2.424.7,6.683,6.683,0,0,0,2.244.617" transform="translate(-12895.929 -12283.505)" fill="#8c8ea2"/>
    <path id="Path_9168" data-name="Path 9168" d="M26.665,14.778a5.632,5.632,0,0,1-2.149-.28c-.368-.132-.73-.279-1.11-.381a5.631,5.631,0,0,0-1.38-.155,5.225,5.225,0,0,0-2.3.5,6.842,6.842,0,0,1-2.519.685,5.655,5.655,0,0,1-2.6-.434,8.188,8.188,0,0,0-1.167-.452,7.364,7.364,0,0,0-1.338-.174,6.9,6.9,0,0,0-1.315.133,10.814,10.814,0,0,0-1.326.478,5.326,5.326,0,0,1-2.368.32,6.568,6.568,0,0,1-2.423-.7A6.673,6.673,0,0,0,2.43,13.7a5.631,5.631,0,0,1,2.149.28c.368.131.729.279,1.11.381a5.642,5.642,0,0,0,1.38.154,5.232,5.232,0,0,0,2.3-.5,9.875,9.875,0,0,1,1.137-.468,5.79,5.79,0,0,1,1.382-.216,5.645,5.645,0,0,1,2.6.435,8.268,8.268,0,0,0,1.168.452,7.422,7.422,0,0,0,1.338.172,6.829,6.829,0,0,0,1.313-.133,10.826,10.826,0,0,0,1.327-.478A5.342,5.342,0,0,1,22,13.461a6.55,6.55,0,0,1,2.424.7,6.682,6.682,0,0,0,2.245.617" transform="translate(-12894.965 -12285.287)" fill="#8c8ea2"/>
    <path id="Path_9169" data-name="Path 9169" d="M24.235,19.267a5.631,5.631,0,0,1-2.149-.28c-.368-.131-.73-.279-1.11-.381a5.634,5.634,0,0,0-1.38-.155,5.238,5.238,0,0,0-2.3.5,6.832,6.832,0,0,1-2.519.685,5.651,5.651,0,0,1-2.6-.434,8.239,8.239,0,0,0-1.168-.452,7.364,7.364,0,0,0-1.338-.174,6.942,6.942,0,0,0-1.314.133,10.823,10.823,0,0,0-1.327.478,5.324,5.324,0,0,1-2.368.32,6.568,6.568,0,0,1-2.424-.7A6.684,6.684,0,0,0,0,18.19a5.631,5.631,0,0,1,2.149.28c.368.131.73.279,1.11.381a5.664,5.664,0,0,0,1.38.155,5.239,5.239,0,0,0,2.3-.5,9.875,9.875,0,0,1,1.137-.468,5.79,5.79,0,0,1,1.382-.216,5.649,5.649,0,0,1,2.6.435,8.167,8.167,0,0,0,1.168.452,7.416,7.416,0,0,0,1.337.172,6.792,6.792,0,0,0,1.314-.133,10.9,10.9,0,0,0,1.327-.478,5.342,5.342,0,0,1,2.368-.318,6.553,6.553,0,0,1,2.424.7,6.683,6.683,0,0,0,2.244.617" transform="translate(-12894 -12287.068)" fill="#8c8ea2"/>
    <path id="Path_9170" data-name="Path 9170" d="M82.93,25.658a9.139,9.139,0,0,1-3.255-.394c-.557-.186-1.105-.393-1.681-.537a9.177,9.177,0,0,0-2.09-.218,8.437,8.437,0,0,0-3.479.706,10.945,10.945,0,0,1-3.815.966,9.123,9.123,0,0,1-3.937-.611,13.107,13.107,0,0,0-1.769-.638,12.079,12.079,0,0,0-2.025-.244,11.3,11.3,0,0,0-1.991.188,17.079,17.079,0,0,0-2.009.674,8.624,8.624,0,0,1-3.586.45,10.486,10.486,0,0,1-3.671-.987,10.7,10.7,0,0,0-3.4-.87,9.107,9.107,0,0,1,3.254.395c.558.186,1.105.393,1.682.537a9.168,9.168,0,0,0,2.089.218,8.424,8.424,0,0,0,3.478-.707,15.605,15.605,0,0,1,1.723-.66,9.38,9.38,0,0,1,2.093-.3,9.127,9.127,0,0,1,3.936.613,13.052,13.052,0,0,0,1.769.637,12.022,12.022,0,0,0,2.026.242,11.075,11.075,0,0,0,1.991-.188,17.345,17.345,0,0,0,2.009-.674,8.657,8.657,0,0,1,3.586-.448,10.5,10.5,0,0,1,3.671.987,10.707,10.707,0,0,0,3.4.87" transform="translate(-12912.349 -12289.369)" fill="#8c8ea2"/>
    <path id="Path_9171" data-name="Path 9171" d="M79.25,31.986A9.139,9.139,0,0,1,76,31.592c-.557-.186-1.105-.393-1.681-.537a9.177,9.177,0,0,0-2.09-.218,8.432,8.432,0,0,0-3.478.706,10.952,10.952,0,0,1-3.815.966,9.121,9.121,0,0,1-3.937-.611,13.144,13.144,0,0,0-1.77-.638,12.017,12.017,0,0,0-2.025-.244,11.3,11.3,0,0,0-1.991.188,17.078,17.078,0,0,0-2.009.674,8.624,8.624,0,0,1-3.586.45,10.483,10.483,0,0,1-3.671-.987,10.707,10.707,0,0,0-3.4-.87,9.107,9.107,0,0,1,3.254.395c.558.186,1.105.393,1.681.537a9.18,9.18,0,0,0,2.09.218,8.422,8.422,0,0,0,3.478-.707,15.605,15.605,0,0,1,1.723-.66,9.385,9.385,0,0,1,2.093-.3,9.131,9.131,0,0,1,3.937.613,12.994,12.994,0,0,0,1.769.637,12.015,12.015,0,0,0,2.025.242,11.075,11.075,0,0,0,1.991-.188,17.345,17.345,0,0,0,2.009-.674,8.657,8.657,0,0,1,3.586-.448,10.5,10.5,0,0,1,3.671.987,10.707,10.707,0,0,0,3.4.87" transform="translate(-12910.888 -12291.881)" fill="#8c8ea2"/>
    <path id="Path_9172" data-name="Path 9172" d="M75.57,38.314a9.139,9.139,0,0,1-3.255-.394c-.557-.186-1.105-.393-1.681-.537a9.177,9.177,0,0,0-2.09-.218,8.432,8.432,0,0,0-3.478.706,10.952,10.952,0,0,1-3.815.966,9.121,9.121,0,0,1-3.937-.611,13.144,13.144,0,0,0-1.77-.638,12.017,12.017,0,0,0-2.025-.244,11.3,11.3,0,0,0-1.991.188,17.079,17.079,0,0,0-2.009.674,8.624,8.624,0,0,1-3.586.45,10.5,10.5,0,0,1-3.671-.987,10.707,10.707,0,0,0-3.4-.87,9.107,9.107,0,0,1,3.254.395c.558.186,1.105.393,1.681.537a9.177,9.177,0,0,0,2.09.218,8.422,8.422,0,0,0,3.478-.707,15.6,15.6,0,0,1,1.723-.66,9.379,9.379,0,0,1,2.093-.3,9.131,9.131,0,0,1,3.937.613,12.994,12.994,0,0,0,1.769.637,12.016,12.016,0,0,0,2.025.242A11.076,11.076,0,0,0,62.9,37.58a17.346,17.346,0,0,0,2.009-.674,8.657,8.657,0,0,1,3.586-.448,10.5,10.5,0,0,1,3.671.987,10.707,10.707,0,0,0,3.4.87" transform="translate(-12909.428 -12294.393)" fill="#8c8ea2"/>
  </g>
</svg>